<?xml version="1.0" standalone="no"?>
<!DOCTYPE svg PUBLIC "-//W3C//DTD SVG 20010904//EN"
 "http://www.w3.org/TR/2001/REC-SVG-20010904/DTD/svg10.dtd">
<svg version="1.0" xmlns="http://www.w3.org/2000/svg"
 width="719.000000pt" height="719.000000pt" viewBox="0 0 719.000000 719.000000"
 preserveAspectRatio="xMidYMid meet">
<metadata>
Created by potrace 1.11, written by Peter Selinger 2001-2013
</metadata>
<g transform="translate(0.000000,719.000000) scale(0.100000,-0.100000)"
fill="#000000" stroke="none">
<path d="M65 7097 c-17 -8 -36 -21 -43 -30 -19 -23 -10 -105 21 -197 14 -41
58 -178 97 -305 39 -126 105 -333 145 -460 40 -126 96 -304 125 -395 48 -153
172 -543 224 -705 l23 -70 -57 -130 c-121 -276 -201 -564 -247 -886 -25 -177
-24 -662 1 -839 31 -224 69 -387 139 -603 28 -86 38 -131 30 -135 -43 -27
-273 -197 -273 -201 0 -15 287 -346 302 -349 10 -2 51 22 93 52 41 31 80 56
87 56 7 0 25 -22 41 -49 39 -70 161 -254 215 -326 288 -378 714 -740 1093
-926 l66 -32 64 51 c35 29 72 52 83 52 17 0 98 -80 221 -220 52 -60 65 -66
225 -110 580 -161 1263 -150 1827 31 50 16 97 29 102 29 6 0 11 -17 11 -39 0
-54 16 -64 92 -57 35 3 133 8 218 12 85 3 161 10 167 16 9 8 11 45 6 147 l-6
138 84 48 c417 240 789 586 1066 992 l77 113 222 0 221 0 49 27 c27 15 81 59
119 97 138 138 195 299 195 555 0 151 -14 222 -63 316 -43 81 -146 184 -226
224 l-63 32 6 37 c34 203 32 678 -3 907 -37 241 -83 426 -159 640 l-39 110
-55 9 c-31 5 -64 6 -73 2 -16 -6 -17 -8 -1 -24 9 -10 16 -27 16 -38 0 -10 6
-30 13 -44 38 -73 62 -184 118 -558 25 -167 30 -486 11 -612 -20 -126 -52
-280 -67 -322 -9 -26 -10 -39 -2 -47 8 -8 7 -11 -4 -11 -115 -3 -243 -58 -330
-141 -76 -74 -128 -166 -147 -264 -10 -47 -7 -182 5 -207 12 -27 52 -127 60
-148 4 -12 2 -12 -9 1 -11 14 -15 14 -26 3 -6 -7 -12 -22 -12 -33 0 -11 -9
-25 -20 -31 -11 -6 -20 -17 -20 -25 0 -8 -4 -15 -10 -15 -5 0 -10 -6 -10 -13
0 -8 -9 -24 -19 -36 -11 -13 -21 -27 -23 -31 -2 -5 -41 -14 -87 -19 -46 -6
-86 -13 -88 -15 -3 -2 31 -7 74 -10 100 -9 133 -17 147 -38 14 -23 10 -25 -70
-49 -63 -18 -136 -24 -234 -17 -54 4 -162 -12 -194 -28 -33 -16 -131 -20 -121
-4 4 6 -13 10 -44 10 -36 0 -50 -4 -49 -12 2 -10 -25 -14 -104 -16 l-106 -3
-6 63 c-3 35 -5 87 -4 117 1 79 -19 94 -114 92 -40 -1 -80 -4 -89 -6 -18 -6
-42 -52 -34 -65 5 -9 -600 -19 -619 -11 -4 2 16 16 45 32 67 37 85 54 121 108
113 178 -137 327 -726 432 l-128 23 -18 -22 c-19 -23 -17 -54 5 -72 7 -6 76
-23 152 -39 177 -36 262 -63 349 -110 115 -62 141 -127 84 -213 -33 -49 -67
-75 -175 -133 -272 -145 -315 -177 -315 -234 0 -41 64 -94 196 -161 243 -124
310 -178 321 -259 10 -77 -48 -133 -197 -190 -74 -28 -252 -72 -350 -87 -76
-11 -112 -61 -71 -98 19 -17 26 -17 148 3 226 38 459 104 576 162 165 83 213
169 149 270 -38 58 -52 70 -158 129 -49 27 -84 50 -79 51 68 3 603 -5 640 -11
l50 -7 -52 -2 c-28 0 -55 -6 -59 -12 -14 -23 -12 -82 3 -106 16 -24 111 -84
218 -136 33 -17 74 -41 92 -53 17 -13 36 -24 42 -24 18 0 12 -30 -6 -37 -51
-18 -103 -45 -103 -53 0 -6 -6 -10 -14 -10 -7 0 -19 -7 -26 -15 -7 -8 -21 -15
-31 -15 -11 0 -19 -6 -19 -14 0 -8 -20 -24 -45 -36 -25 -12 -45 -25 -45 -30 0
-4 -16 -11 -35 -14 -19 -4 -35 -10 -35 -15 0 -4 -25 -18 -55 -31 -30 -13 -55
-27 -55 -31 0 -5 -16 -11 -35 -15 -19 -3 -35 -10 -35 -14 0 -4 -20 -11 -45
-14 -25 -4 -45 -10 -45 -14 0 -4 -30 -18 -67 -31 -38 -13 -71 -28 -74 -33 -3
-5 -30 -11 -60 -15 -30 -3 -60 -10 -67 -16 -7 -6 -32 -14 -55 -18 -23 -5 -84
-18 -136 -29 -52 -11 -146 -27 -208 -35 -129 -17 -419 -20 -502 -5 -31 5 -87
14 -126 19 -168 22 -503 109 -513 133 -2 4 -14 8 -26 8 -12 0 -26 4 -32 8 -5
5 -31 17 -59 27 -27 10 -87 35 -132 56 -45 22 -87 39 -92 39 -6 0 -11 3 -11 8
0 4 -22 17 -50 30 -27 13 -50 26 -50 30 0 4 -14 13 -32 21 -17 8 -39 22 -48
31 -9 9 -23 20 -31 23 -8 4 -27 16 -44 27 -16 11 -41 25 -55 32 -14 7 -35 23
-48 36 -13 13 -26 22 -29 18 -3 -3 -24 14 -47 37 -22 23 -44 42 -49 42 -4 0
-32 26 -62 58 -30 31 -61 57 -69 57 -18 0 -66 43 -66 59 0 6 -9 11 -20 11 -11
0 -29 8 -39 17 -10 10 -40 36 -65 58 -25 22 -46 44 -46 48 0 9 -72 77 -82 77
-4 0 -15 14 -25 30 -9 17 -23 30 -30 30 -7 0 -13 4 -13 10 0 5 -5 9 -12 7 -7
-1 -17 8 -23 21 -5 12 -15 22 -22 22 -7 0 -13 5 -13 11 0 16 -24 36 -37 32 -7
-3 -15 7 -19 21 -3 14 -10 26 -15 26 -5 0 -9 7 -9 15 0 8 -9 23 -20 32 -11 10
-20 23 -20 30 0 7 -6 13 -14 13 -21 0 -66 47 -66 70 0 13 -8 24 -20 27 -13 3
-20 14 -20 29 0 13 -4 24 -10 24 -5 0 -10 7 -10 15 0 9 -6 18 -14 21 -8 3 -18
19 -21 35 -4 16 -13 29 -21 29 -8 0 -14 5 -14 10 0 6 -7 10 -15 10 -8 0 -15 7
-15 15 0 8 -4 15 -10 15 -5 0 -10 14 -10 30 0 20 -5 30 -15 30 -9 0 -15 9 -15
25 0 14 -6 28 -14 31 -8 3 -18 19 -21 35 -4 16 -11 29 -15 29 -5 0 -12 15 -16
34 -3 19 -12 37 -20 40 -8 3 -14 15 -14 26 0 11 -7 20 -15 20 -8 0 -15 7 -15
15 0 17 -41 99 -52 103 -4 2 -8 10 -8 18 0 8 -9 34 -20 56 -11 23 -20 50 -20
59 0 10 -5 21 -10 24 -6 3 -10 17 -10 31 0 13 -3 24 -8 24 -4 0 -13 28 -20 63
-8 34 -18 80 -23 102 -5 22 -13 60 -18 85 -6 25 -16 77 -24 115 -20 95 -16
515 7 670 44 303 79 461 131 580 7 17 18 48 25 70 7 22 16 44 21 49 5 6 9 16
9 23 0 11 112 254 145 313 8 14 24 43 36 64 34 63 126 198 154 228 14 15 25
32 25 38 0 5 3 10 8 10 4 0 20 25 37 55 16 30 32 55 36 55 3 0 18 17 31 38 14
20 62 75 108 122 45 47 105 109 133 139 29 30 70 66 92 80 45 29 90 67 114 94
20 23 159 137 167 137 3 0 20 11 38 25 18 14 37 25 41 25 5 0 49 26 99 59 160
103 303 178 411 214 39 13 114 40 167 60 l97 36 78 -38 c43 -21 102 -52 131
-70 29 -17 57 -31 62 -31 6 0 32 44 59 98 74 147 67 142 202 158 299 35 482
36 769 4 120 -14 372 -64 442 -89 29 -10 87 -29 128 -41 41 -12 105 -35 141
-50 36 -15 81 -31 100 -35 72 -16 436 -209 448 -238 2 -5 23 -17 47 -28 24
-10 50 -23 57 -28 6 -6 49 -38 94 -71 45 -34 90 -71 100 -83 10 -13 56 -52
103 -87 47 -36 105 -87 130 -114 25 -27 79 -85 120 -127 99 -103 137 -150 192
-234 24 -38 55 -81 67 -95 27 -31 83 -118 122 -187 16 -29 41 -69 54 -89 14
-20 25 -42 25 -48 0 -6 15 -41 33 -78 l33 -66 18 80 c18 77 18 82 1 117 -53
112 -287 432 -409 559 -28 29 -52 57 -54 62 -9 24 -283 264 -408 359 -465 349
-979 554 -1584 632 -146 19 -650 17 -783 -3 -54 -8 -100 -12 -102 -8 -2 3 5
25 16 49 11 24 18 46 16 48 -16 15 -48 -31 -111 -163 -41 -85 -76 -154 -79
-154 -2 0 -81 45 -175 100 -138 81 -175 98 -193 92 -21 -8 -19 -10 22 -33 24
-13 44 -31 44 -38 0 -9 -33 -25 -85 -41 -106 -35 -159 -55 -281 -109 l-97 -42
-98 31 c-55 17 -110 36 -124 41 -36 13 -174 47 -178 44 -2 -2 6 -11 17 -22 20
-19 20 -19 -37 -43 -120 -51 -295 -143 -380 -200 -88 -59 -314 -237 -320 -252
-5 -12 -19 -10 -19 5 -1 6 -8 39 -16 72 -9 33 -17 80 -19 104 -3 44 -3 45 75
112 125 108 264 195 407 253 44 19 82 37 83 42 2 8 -476 164 -505 164 -22 0
-99 -46 -196 -117 -64 -47 -121 -96 -281 -240 l-46 -42 -13 62 c-17 80 -1 200
31 236 12 13 67 60 122 104 55 44 101 83 103 86 1 4 -76 32 -173 62 -205 66
-175 72 -328 -70 -53 -50 -101 -91 -105 -91 -5 0 -13 10 -19 23 -27 55 -34 88
-32 140 2 45 8 63 31 91 22 27 25 36 14 45 -22 18 -69 22 -101 8z m6790 -4341
c84 -69 146 -239 129 -355 -14 -99 -83 -235 -141 -281 -23 -18 -41 -20 -149
-20 -81 0 -124 4 -124 11 0 24 22 49 43 49 38 0 144 57 186 100 22 23 53 67
68 98 24 48 28 69 28 137 -1 89 -21 147 -75 215 -29 37 -37 60 -23 73 10 11
13 9 58 -27z m-462 -111 c4 -26 3 -35 -3 -26 -9 16 -15 -1 -23 -64 -3 -22 -4
-18 -6 14 -1 36 17 127 24 119 1 -2 5 -21 8 -43z"/>
<path d="M6022 6878 c-21 -27 -192 -379 -192 -397 0 -10 6 -23 13 -29 22 -18
373 -202 385 -202 15 0 215 398 208 415 -2 7 -53 38 -113 70 -59 32 -149 80
-199 106 -71 38 -94 46 -102 37z"/>
<path d="M4295 6390 c-110 -49 -204 -95 -209 -103 -13 -21 163 -431 187 -435
16 -3 412 161 431 178 13 13 -175 450 -194 450 -8 -1 -105 -41 -215 -90z"/>
<path d="M2154 4941 c-221 -46 -499 -171 -691 -313 -57 -42 -73 -64 -73 -102
0 -33 23 -54 67 -62 31 -6 51 1 152 53 146 76 267 124 401 160 95 25 121 27
270 27 152 0 171 -2 245 -26 186 -62 302 -53 324 27 19 70 -12 118 -106 168
-113 59 -198 79 -358 83 -108 2 -161 -1 -231 -15z"/>
<path d="M4700 4953 c-70 -12 -178 -47 -239 -78 -70 -35 -107 -70 -117 -111
-8 -33 14 -92 42 -110 40 -27 140 -20 267 18 106 31 120 33 267 33 135 -1 169
-4 264 -28 137 -34 289 -94 403 -159 68 -39 98 -51 134 -52 57 -1 89 23 89 67
0 42 -51 87 -207 180 -279 166 -542 249 -778 246 -55 -1 -111 -4 -125 -6z"/>
<path d="M2460 3814 c-270 -41 -471 -145 -533 -276 -21 -44 -22 -119 -2 -157
18 -36 71 -81 94 -81 10 0 51 15 92 34 283 129 689 171 880 91 32 -14 63 -25
68 -25 36 0 111 110 111 162 0 41 -36 84 -112 135 -84 56 -196 96 -311 112
-74 10 -232 13 -287 5z"/>
<path d="M4423 3806 c-87 -17 -163 -41 -223 -72 -68 -35 -159 -111 -166 -139
-14 -56 21 -136 77 -178 l27 -19 65 26 c125 50 303 57 515 20 109 -18 295 -75
383 -115 82 -38 108 -33 157 30 96 127 -24 301 -273 395 -39 14 -102 33 -140
42 -99 21 -332 27 -422 10z"/>
<path d="M1636 3411 c-3 -4 -23 -11 -43 -15 -21 -3 -51 -17 -68 -31 -16 -13
-35 -29 -41 -34 -7 -5 -14 -7 -17 -4 -3 3 -9 -11 -12 -30 -4 -20 -13 -38 -21
-41 -8 -3 -14 -12 -14 -20 0 -8 -5 -16 -11 -18 -6 -2 -13 -25 -16 -51 -3 -26
-10 -47 -14 -47 -5 0 -9 -18 -9 -40 0 -22 5 -40 11 -40 7 0 8 -11 4 -30 -6
-26 -4 -30 14 -30 12 0 21 -6 21 -13 0 -16 42 -57 58 -57 7 0 12 -4 12 -10 0
-5 12 -13 28 -16 15 -4 30 -12 34 -18 5 -7 43 -11 99 -10 74 0 93 4 101 17 5
9 18 17 28 17 11 0 20 5 20 11 0 15 23 36 46 41 10 2 18 11 18 21 -2 16 8 22
30 18 5 -1 6 5 3 14 -4 8 -2 15 3 15 6 0 10 11 10 25 0 14 7 42 15 61 18 43
10 120 -15 149 -10 11 -30 44 -46 73 -17 31 -35 52 -45 52 -9 0 -22 7 -29 15
-7 9 -29 15 -51 15 -21 0 -41 5 -44 10 -8 12 -52 13 -59 1z"/>
<path d="M5495 3409 c-53 -12 -115 -40 -115 -51 0 -5 -4 -7 -8 -4 -10 6 -88
-124 -85 -143 1 -8 -3 -25 -8 -39 -11 -28 6 -127 26 -152 7 -8 15 -23 18 -32
4 -10 11 -18 17 -18 5 0 10 -7 10 -15 0 -8 5 -15 10 -15 6 0 15 -11 22 -25 6
-13 15 -22 20 -19 4 3 25 -5 46 -18 32 -20 50 -23 131 -23 66 0 96 4 99 13 2
6 12 12 22 12 10 0 25 6 32 14 8 7 23 16 33 20 31 10 62 66 70 127 4 29 12 57
19 61 7 5 6 11 -6 20 -9 7 -28 49 -43 92 -30 90 -91 166 -132 166 -13 0 -23 4
-23 9 0 5 -15 11 -32 14 -18 3 -44 8 -58 11 -14 2 -43 0 -65 -5z"/>
<path d="M6155 1000 c4 -118 9 -219 12 -224 6 -10 365 1 422 12 28 6 31 9 19
19 -10 9 -62 10 -203 3 -105 -4 -194 -5 -199 0 -4 4 -12 90 -17 191 -7 149
-11 185 -25 198 -15 15 -16 1 -9 -199z"/>
<path d="M601 794 c-95 -97 -171 -182 -169 -190 4 -18 297 -334 310 -334 6 0
40 30 77 68 270 276 283 290 275 305 -18 31 -298 327 -309 327 -7 0 -90 -79
-184 -176z"/>
</g>
</svg>
